<svg xmlns="http://www.w3.org/2000/svg" width="1280" height="588" viewBox="0 0 1280 588" role="img" aria-labelledby="title desc"><title id="title">Median Chronicle speed ratio by workload</title><desc id="desc">Node-cron median divided by Chronicle median on a symmetric log scale. Right of one favors Chronicle; left favors node-cron.</desc><style>text{font-family:ui-sans-serif,system-ui,sans-serif;fill:#172033}.muted{fill:#526078}.grid{stroke:#d8dee9;stroke-width:1}.axis{stroke:#526078;stroke-width:1}.bar{fill:#2563eb}.bar-p95{fill:#60a5fa}.ratio{fill:#7c3aed}.baseline{stroke:#dc2626;stroke-width:2}.small{font-size:12px}.label{font-size:13px;font-weight:600}.title{font-size:18px;font-weight:700}</style><text x="370" y="30" class="title">Median speed ratio — Chronicle baseline at 1×</text><text x="370" y="52" class="small muted">node-cron p50 / Chronicle p50: right favors Chronicle; left favors node-cron.</text><line x1="364.58289541566694" y1="66" x2="364.58289541566694" y2="498" class="grid"/><text x="364.58289541566694" y="518" text-anchor="middle" class="small muted">0.031×</text><line x1="534.7497372494001" y1="66" x2="534.7497372494001" y2="498" class="grid"/><text x="534.7497372494001" y="518" text-anchor="middle" class="small muted">0.125×</text><line x1="704.9165790831335" y1="66" x2="704.9165790831335" y2="498" class="grid"/><text x="704.9165790831335" y="518" text-anchor="middle" class="small muted">0.5×</text><line x1="790" y1="66" x2="790" y2="498" class="baseline"/><text x="790" y="518" text-anchor="middle" class="small muted">1×</text><line x1="875.0834209168665" y1="66" x2="875.0834209168665" y2="498" class="grid"/><text x="875.0834209168665" y="518" text-anchor="middle" class="small muted">2×</text><line x1="1045.2502627505999" y1="66" x2="1045.2502627505999" y2="498" class="grid"/><text x="1045.2502627505999" y="518" text-anchor="middle" class="small muted">8×</text><line x1="1215.4171045843332" y1="66" x2="1215.4171045843332" y2="498" class="grid"/><text x="1215.4171045843332" y="518" text-anchor="middle" class="small muted">32×</text><text x="358" y="95" text-anchor="end" class="label">getNextRun-warm: dense — node-cron</text><rect x="790" y="83" width="384.31853478937956" height="14" class="ratio"/><circle cx="1174.3185347893796" cy="90" r="4" fill="#4c1d95"/><text x="1181.3185347893796" y="95" class="small">22.895×</text><text x="358" y="127" text-anchor="end" class="label">getNextRun-warm: last-day — node-cron</text><rect x="790" y="115" width="290.33265950290297" height="14" class="ratio"/><circle cx="1080.332659502903" cy="122" r="4" fill="#4c1d95"/><text x="1087.332659502903" y="127" class="small">10.647×</text><text x="358" y="159" text-anchor="end" class="label">getNextRun-warm: last-offset — node-cron</text><rect x="790" y="147" width="315.7131053699991" height="14" class="ratio"/><circle cx="1105.713105369999" cy="154" r="4" fill="#4c1d95"/><text x="1112.713105369999" y="159" class="small">13.092×</text><text x="358" y="191" text-anchor="end" class="label">getNextRun-warm: last-weekday — node-cron</text><rect x="790" y="179" width="290.266070801408" height="14" class="ratio"/><circle cx="1080.266070801408" cy="186" r="4" fill="#4c1d95"/><text x="1087.266070801408" y="191" class="small">10.641×</text><text x="358" y="223" text-anchor="end" class="label">getNextRun-warm: leap — node-cron</text><rect x="790" y="211" width="420" height="14" class="ratio"/><circle cx="1210" cy="218" r="4" fill="#4c1d95"/><text x="1217" y="223" class="small">30.619×</text><text x="358" y="255" text-anchor="end" class="label">getNextRun-warm: named — node-cron</text><rect x="790" y="243" width="270.82942430818775" height="14" class="ratio"/><circle cx="1060.8294243081878" cy="250" r="4" fill="#4c1d95"/><text x="1067.8294243081878" y="255" class="small">9.083×</text><text x="358" y="287" text-anchor="end" class="label">getNextRun-warm: nearest-weekday — node-cron</text><rect x="790" y="275" width="307.3672856145788" height="14" class="ratio"/><circle cx="1097.3672856145788" cy="282" r="4" fill="#4c1d95"/><text x="1104.3672856145788" y="287" class="small">12.232×</text><text x="358" y="319" text-anchor="end" class="label">getNextRun-warm: nth-weekday — node-cron</text><rect x="790" y="307" width="311.89830202510893" height="14" class="ratio"/><circle cx="1101.898302025109" cy="314" r="4" fill="#4c1d95"/><text x="1108.898302025109" y="319" class="small">12.692×</text><text x="358" y="351" text-anchor="end" class="label">getNextRun-warm: simple — node-cron</text><rect x="790" y="339" width="300.9633153584905" height="14" class="ratio"/><circle cx="1090.9633153584905" cy="346" r="4" fill="#4c1d95"/><text x="1097.9633153584905" y="351" class="small">11.61×</text><text x="358" y="383" text-anchor="end" class="label">getNextRun-warm: stepped — node-cron</text><rect x="790" y="371" width="297.8424190071637" height="14" class="ratio"/><circle cx="1087.8424190071637" cy="378" r="4" fill="#4c1d95"/><text x="1094.8424190071637" y="383" class="small">11.318×</text><text x="358" y="415" text-anchor="end" class="label">getNextRun-warm: weekday-last — node-cron</text><rect x="790" y="403" width="294.4588732929899" height="14" class="ratio"/><circle cx="1084.45887329299" cy="410" r="4" fill="#4c1d95"/><text x="1091.45887329299" y="415" class="small">11.011×</text><text x="358" y="447" text-anchor="end" class="label">getNextRun-warm: wrapped — node-cron</text><rect x="790" y="435" width="297.59109641324744" height="14" class="ratio"/><circle cx="1087.5910964132474" cy="442" r="4" fill="#4c1d95"/><text x="1094.5910964132474" y="447" class="small">11.295×</text><text x="358" y="479" text-anchor="end" class="label">getNextRun-warm: yearly — node-cron</text><rect x="790" y="467" width="345.85041267974566" height="14" class="ratio"/><circle cx="1135.8504126797457" cy="474" r="4" fill="#4c1d95"/><text x="1142.8504126797457" y="479" class="small">16.735×</text><text x="370" y="560" class="small muted">Shared task workloads use UTC. Warm next-run uses the live clock; API internals differ.</text></svg>